<?xml version="1.0" encoding="utf-8" standalone="no"?>
<!DOCTYPE svg PUBLIC "-//W3C//DTD SVG 1.1//EN"
  "http://www.w3.org/Graphics/SVG/1.1/DTD/svg11.dtd">
<svg xmlns:xlink="http://www.w3.org/1999/xlink" width="460.8pt" height="273.6pt" viewBox="0 0 460.8 273.6" xmlns="http://www.w3.org/2000/svg" version="1.1">
 <metadata>
  <rdf:RDF xmlns:dc="http://purl.org/dc/elements/1.1/" xmlns:cc="http://creativecommons.org/ns#" xmlns:rdf="http://www.w3.org/1999/02/22-rdf-syntax-ns#">
   <cc:Work>
    <dc:type rdf:resource="http://purl.org/dc/dcmitype/StillImage"/>
    <dc:date>2026-06-11T08:45:55.837562</dc:date>
    <dc:format>image/svg+xml</dc:format>
    <dc:creator>
     <cc:Agent>
      <dc:title>Matplotlib v3.10.9, https://matplotlib.org/</dc:title>
     </cc:Agent>
    </dc:creator>
   </cc:Work>
  </rdf:RDF>
 </metadata>
 <defs>
  <style type="text/css">*{stroke-linejoin: round; stroke-linecap: butt}</style>
 </defs>
 <g id="figure_1">
  <g id="patch_1">
   <path d="M 0 273.6 
L 460.8 273.6 
L 460.8 0 
L 0 0 
z
" style="fill: #ffffff"/>
  </g>
  <g id="axes_1">
   <g id="patch_2">
    <path d="M 49.912685 245.72 
L 450 245.72 
L 450 25.44 
L 49.912685 25.44 
z
" style="fill: #ffffff"/>
   </g>
   <g id="matplotlib.axis_1">
    <g id="xtick_1">
     <g id="line2d_1">
      <defs>
       <path id="m54f5542b92" d="M 0 0 
L 0 3.5 
" style="stroke: #000000; stroke-width: 0.8"/>
      </defs>
      <g>
       <use xlink:href="#m54f5542b92" x="68.098472" y="245.72" style="stroke: #000000; stroke-width: 0.8"/>
      </g>
     </g>
     <g id="text_1">
      <!-- 64 B -->
      <g transform="translate(56.716441 260.318437) scale(0.1 -0.1)">
       <defs>
        <path id="DejaVuSans-36" d="M 2113 2584 
Q 1688 2584 1439 2293 
Q 1191 2003 1191 1497 
Q 1191 994 1439 701 
Q 1688 409 2113 409 
Q 2538 409 2786 701 
Q 3034 994 3034 1497 
Q 3034 2003 2786 2293 
Q 2538 2584 2113 2584 
z
M 3366 4563 
L 3366 3988 
Q 3128 4100 2886 4159 
Q 2644 4219 2406 4219 
Q 1781 4219 1451 3797 
Q 1122 3375 1075 2522 
Q 1259 2794 1537 2939 
Q 1816 3084 2150 3084 
Q 2853 3084 3261 2657 
Q 3669 2231 3669 1497 
Q 3669 778 3244 343 
Q 2819 -91 2113 -91 
Q 1303 -91 875 529 
Q 447 1150 447 2328 
Q 447 3434 972 4092 
Q 1497 4750 2381 4750 
Q 2619 4750 2861 4703 
Q 3103 4656 3366 4563 
z
" transform="scale(0.015625)"/>
        <path id="DejaVuSans-34" d="M 2419 4116 
L 825 1625 
L 2419 1625 
L 2419 4116 
z
M 2253 4666 
L 3047 4666 
L 3047 1625 
L 3713 1625 
L 3713 1100 
L 3047 1100 
L 3047 0 
L 2419 0 
L 2419 1100 
L 313 1100 
L 313 1709 
L 2253 4666 
z
" transform="scale(0.015625)"/>
        <path id="DejaVuSans-20" transform="scale(0.015625)"/>
        <path id="DejaVuSans-42" d="M 1259 2228 
L 1259 519 
L 2272 519 
Q 2781 519 3026 730 
Q 3272 941 3272 1375 
Q 3272 1813 3026 2020 
Q 2781 2228 2272 2228 
L 1259 2228 
z
M 1259 4147 
L 1259 2741 
L 2194 2741 
Q 2656 2741 2882 2914 
Q 3109 3088 3109 3444 
Q 3109 3797 2882 3972 
Q 2656 4147 2194 4147 
L 1259 4147 
z
M 628 4666 
L 2241 4666 
Q 2963 4666 3353 4366 
Q 3744 4066 3744 3513 
Q 3744 3084 3544 2831 
Q 3344 2578 2956 2516 
Q 3422 2416 3680 2098 
Q 3938 1781 3938 1306 
Q 3938 681 3513 340 
Q 3088 0 2303 0 
L 628 0 
L 628 4666 
z
" transform="scale(0.015625)"/>
       </defs>
       <use xlink:href="#DejaVuSans-36"/>
       <use xlink:href="#DejaVuSans-34" transform="translate(63.623047 0)"/>
       <use xlink:href="#DejaVuSans-20" transform="translate(127.246094 0)"/>
       <use xlink:href="#DejaVuSans-42" transform="translate(159.033203 0)"/>
      </g>
     </g>
    </g>
    <g id="xtick_2">
     <g id="line2d_2">
      <g>
       <use xlink:href="#m54f5542b92" x="128.717762" y="245.72" style="stroke: #000000; stroke-width: 0.8"/>
      </g>
     </g>
     <g id="text_2">
      <!-- 1 KiB -->
      <g transform="translate(115.849012 260.318437) scale(0.1 -0.1)">
       <defs>
        <path id="DejaVuSans-31" d="M 794 531 
L 1825 531 
L 1825 4091 
L 703 3866 
L 703 4441 
L 1819 4666 
L 2450 4666 
L 2450 531 
L 3481 531 
L 3481 0 
L 794 0 
L 794 531 
z
" transform="scale(0.015625)"/>
        <path id="DejaVuSans-4b" d="M 628 4666 
L 1259 4666 
L 1259 2694 
L 3353 4666 
L 4166 4666 
L 1850 2491 
L 4331 0 
L 3500 0 
L 1259 2247 
L 1259 0 
L 628 0 
L 628 4666 
z
" transform="scale(0.015625)"/>
        <path id="DejaVuSans-69" d="M 603 3500 
L 1178 3500 
L 1178 0 
L 603 0 
L 603 3500 
z
M 603 4863 
L 1178 4863 
L 1178 4134 
L 603 4134 
L 603 4863 
z
" transform="scale(0.015625)"/>
       </defs>
       <use xlink:href="#DejaVuSans-31"/>
       <use xlink:href="#DejaVuSans-20" transform="translate(63.623047 0)"/>
       <use xlink:href="#DejaVuSans-4b" transform="translate(95.410156 0)"/>
       <use xlink:href="#DejaVuSans-69" transform="translate(160.986328 0)"/>
       <use xlink:href="#DejaVuSans-42" transform="translate(188.769531 0)"/>
      </g>
     </g>
    </g>
    <g id="xtick_3">
     <g id="line2d_3">
      <g>
       <use xlink:href="#m54f5542b92" x="189.337052" y="245.72" style="stroke: #000000; stroke-width: 0.8"/>
      </g>
     </g>
     <g id="text_3">
      <!-- 16 KiB -->
      <g transform="translate(173.287052 260.318437) scale(0.1 -0.1)">
       <use xlink:href="#DejaVuSans-31"/>
       <use xlink:href="#DejaVuSans-36" transform="translate(63.623047 0)"/>
       <use xlink:href="#DejaVuSans-20" transform="translate(127.246094 0)"/>
       <use xlink:href="#DejaVuSans-4b" transform="translate(159.033203 0)"/>
       <use xlink:href="#DejaVuSans-69" transform="translate(224.609375 0)"/>
       <use xlink:href="#DejaVuSans-42" transform="translate(252.392578 0)"/>
      </g>
     </g>
    </g>
    <g id="xtick_4">
     <g id="line2d_4">
      <g>
       <use xlink:href="#m54f5542b92" x="249.956342" y="245.72" style="stroke: #000000; stroke-width: 0.8"/>
      </g>
     </g>
     <g id="text_4">
      <!-- 64 KiB -->
      <g transform="translate(233.906342 260.318437) scale(0.1 -0.1)">
       <use xlink:href="#DejaVuSans-36"/>
       <use xlink:href="#DejaVuSans-34" transform="translate(63.623047 0)"/>
       <use xlink:href="#DejaVuSans-20" transform="translate(127.246094 0)"/>
       <use xlink:href="#DejaVuSans-4b" transform="translate(159.033203 0)"/>
       <use xlink:href="#DejaVuSans-69" transform="translate(224.609375 0)"/>
       <use xlink:href="#DejaVuSans-42" transform="translate(252.392578 0)"/>
      </g>
     </g>
    </g>
    <g id="xtick_5">
     <g id="line2d_5">
      <g>
       <use xlink:href="#m54f5542b92" x="310.575633" y="245.72" style="stroke: #000000; stroke-width: 0.8"/>
      </g>
     </g>
     <g id="text_5">
      <!-- 256 KiB -->
      <g transform="translate(291.344383 260.318437) scale(0.1 -0.1)">
       <defs>
        <path id="DejaVuSans-32" d="M 1228 531 
L 3431 531 
L 3431 0 
L 469 0 
L 469 531 
Q 828 903 1448 1529 
Q 2069 2156 2228 2338 
Q 2531 2678 2651 2914 
Q 2772 3150 2772 3378 
Q 2772 3750 2511 3984 
Q 2250 4219 1831 4219 
Q 1534 4219 1204 4116 
Q 875 4013 500 3803 
L 500 4441 
Q 881 4594 1212 4672 
Q 1544 4750 1819 4750 
Q 2544 4750 2975 4387 
Q 3406 4025 3406 3419 
Q 3406 3131 3298 2873 
Q 3191 2616 2906 2266 
Q 2828 2175 2409 1742 
Q 1991 1309 1228 531 
z
" transform="scale(0.015625)"/>
        <path id="DejaVuSans-35" d="M 691 4666 
L 3169 4666 
L 3169 4134 
L 1269 4134 
L 1269 2991 
Q 1406 3038 1543 3061 
Q 1681 3084 1819 3084 
Q 2600 3084 3056 2656 
Q 3513 2228 3513 1497 
Q 3513 744 3044 326 
Q 2575 -91 1722 -91 
Q 1428 -91 1123 -41 
Q 819 9 494 109 
L 494 744 
Q 775 591 1075 516 
Q 1375 441 1709 441 
Q 2250 441 2565 725 
Q 2881 1009 2881 1497 
Q 2881 1984 2565 2268 
Q 2250 2553 1709 2553 
Q 1456 2553 1204 2497 
Q 953 2441 691 2322 
L 691 4666 
z
" transform="scale(0.015625)"/>
       </defs>
       <use xlink:href="#DejaVuSans-32"/>
       <use xlink:href="#DejaVuSans-35" transform="translate(63.623047 0)"/>
       <use xlink:href="#DejaVuSans-36" transform="translate(127.246094 0)"/>
       <use xlink:href="#DejaVuSans-20" transform="translate(190.869141 0)"/>
       <use xlink:href="#DejaVuSans-4b" transform="translate(222.65625 0)"/>
       <use xlink:href="#DejaVuSans-69" transform="translate(288.232422 0)"/>
       <use xlink:href="#DejaVuSans-42" transform="translate(316.015625 0)"/>
      </g>
     </g>
    </g>
    <g id="xtick_6">
     <g id="line2d_6">
      <g>
       <use xlink:href="#m54f5542b92" x="371.194923" y="245.72" style="stroke: #000000; stroke-width: 0.8"/>
      </g>
     </g>
     <g id="text_6">
      <!-- 1 MiB -->
      <g transform="translate(357.291017 260.318437) scale(0.1 -0.1)">
       <defs>
        <path id="DejaVuSans-4d" d="M 628 4666 
L 1569 4666 
L 2759 1491 
L 3956 4666 
L 4897 4666 
L 4897 0 
L 4281 0 
L 4281 4097 
L 3078 897 
L 2444 897 
L 1241 4097 
L 1241 0 
L 628 0 
L 628 4666 
z
" transform="scale(0.015625)"/>
       </defs>
       <use xlink:href="#DejaVuSans-31"/>
       <use xlink:href="#DejaVuSans-20" transform="translate(63.623047 0)"/>
       <use xlink:href="#DejaVuSans-4d" transform="translate(95.410156 0)"/>
       <use xlink:href="#DejaVuSans-69" transform="translate(181.689453 0)"/>
       <use xlink:href="#DejaVuSans-42" transform="translate(209.472656 0)"/>
      </g>
     </g>
    </g>
    <g id="xtick_7">
     <g id="line2d_7">
      <g>
       <use xlink:href="#m54f5542b92" x="431.814213" y="245.72" style="stroke: #000000; stroke-width: 0.8"/>
      </g>
     </g>
     <g id="text_7">
      <!-- 4 MiB -->
      <g transform="translate(417.910307 260.318437) scale(0.1 -0.1)">
       <use xlink:href="#DejaVuSans-34"/>
       <use xlink:href="#DejaVuSans-20" transform="translate(63.623047 0)"/>
       <use xlink:href="#DejaVuSans-4d" transform="translate(95.410156 0)"/>
       <use xlink:href="#DejaVuSans-69" transform="translate(181.689453 0)"/>
       <use xlink:href="#DejaVuSans-42" transform="translate(209.472656 0)"/>
      </g>
     </g>
    </g>
   </g>
   <g id="matplotlib.axis_2">
    <g id="ytick_1">
     <g id="line2d_8">
      <path d="M 49.912685 213.880815 
L 450 213.880815 
" clip-path="url(#p8a2a7975ef)" style="fill: none; stroke: #b0b0b0; stroke-opacity: 0.25; stroke-width: 0.6; stroke-linecap: square"/>
     </g>
     <g id="line2d_9">
      <defs>
       <path id="mea12fd48b9" d="M 0 0 
L -3.5 0 
" style="stroke: #000000; stroke-width: 0.8"/>
      </defs>
      <g>
       <use xlink:href="#mea12fd48b9" x="49.912685" y="213.880815" style="stroke: #000000; stroke-width: 0.8"/>
      </g>
     </g>
     <g id="text_8">
      <!-- $\mathdefault{10^{1}}$ -->
      <g transform="translate(25.312685 217.680034) scale(0.1 -0.1)">
       <defs>
        <path id="DejaVuSans-30" d="M 2034 4250 
Q 1547 4250 1301 3770 
Q 1056 3291 1056 2328 
Q 1056 1369 1301 889 
Q 1547 409 2034 409 
Q 2525 409 2770 889 
Q 3016 1369 3016 2328 
Q 3016 3291 2770 3770 
Q 2525 4250 2034 4250 
z
M 2034 4750 
Q 2819 4750 3233 4129 
Q 3647 3509 3647 2328 
Q 3647 1150 3233 529 
Q 2819 -91 2034 -91 
Q 1250 -91 836 529 
Q 422 1150 422 2328 
Q 422 3509 836 4129 
Q 1250 4750 2034 4750 
z
" transform="scale(0.015625)"/>
       </defs>
       <use xlink:href="#DejaVuSans-31" transform="translate(0 0.684375)"/>
       <use xlink:href="#DejaVuSans-30" transform="translate(63.623047 0.684375)"/>
       <use xlink:href="#DejaVuSans-31" transform="translate(128.203125 38.965625) scale(0.7)"/>
      </g>
     </g>
    </g>
    <g id="ytick_2">
     <g id="line2d_10">
      <path d="M 49.912685 115.496409 
L 450 115.496409 
" clip-path="url(#p8a2a7975ef)" style="fill: none; stroke: #b0b0b0; stroke-opacity: 0.25; stroke-width: 0.6; stroke-linecap: square"/>
     </g>
     <g id="line2d_11">
      <g>
       <use xlink:href="#mea12fd48b9" x="49.912685" y="115.496409" style="stroke: #000000; stroke-width: 0.8"/>
      </g>
     </g>
     <g id="text_9">
      <!-- $\mathdefault{10^{2}}$ -->
      <g transform="translate(25.312685 119.295628) scale(0.1 -0.1)">
       <use xlink:href="#DejaVuSans-31" transform="translate(0 0.765625)"/>
       <use xlink:href="#DejaVuSans-30" transform="translate(63.623047 0.765625)"/>
       <use xlink:href="#DejaVuSans-32" transform="translate(128.203125 39.046875) scale(0.7)"/>
      </g>
     </g>
    </g>
    <g id="ytick_3">
     <g id="line2d_12">
      <path d="M 49.912685 243.497473 
L 450 243.497473 
" clip-path="url(#p8a2a7975ef)" style="fill: none; stroke: #b0b0b0; stroke-opacity: 0.25; stroke-width: 0.6; stroke-linecap: square"/>
     </g>
     <g id="line2d_13">
      <defs>
       <path id="me13654c066" d="M 0 0 
L -2 0 
" style="stroke: #000000; stroke-width: 0.6"/>
      </defs>
      <g>
       <use xlink:href="#me13654c066" x="49.912685" y="243.497473" style="stroke: #000000; stroke-width: 0.6"/>
      </g>
     </g>
    </g>
    <g id="ytick_4">
     <g id="line2d_14">
      <path d="M 49.912685 235.707273 
L 450 235.707273 
" clip-path="url(#p8a2a7975ef)" style="fill: none; stroke: #b0b0b0; stroke-opacity: 0.25; stroke-width: 0.6; stroke-linecap: square"/>
     </g>
     <g id="line2d_15">
      <g>
       <use xlink:href="#me13654c066" x="49.912685" y="235.707273" style="stroke: #000000; stroke-width: 0.6"/>
      </g>
     </g>
    </g>
    <g id="ytick_5">
     <g id="line2d_16">
      <path d="M 49.912685 229.120753 
L 450 229.120753 
" clip-path="url(#p8a2a7975ef)" style="fill: none; stroke: #b0b0b0; stroke-opacity: 0.25; stroke-width: 0.6; stroke-linecap: square"/>
     </g>
     <g id="line2d_17">
      <g>
       <use xlink:href="#me13654c066" x="49.912685" y="229.120753" style="stroke: #000000; stroke-width: 0.6"/>
      </g>
     </g>
    </g>
    <g id="ytick_6">
     <g id="line2d_18">
      <path d="M 49.912685 223.415249 
L 450 223.415249 
" clip-path="url(#p8a2a7975ef)" style="fill: none; stroke: #b0b0b0; stroke-opacity: 0.25; stroke-width: 0.6; stroke-linecap: square"/>
     </g>
     <g id="line2d_19">
      <g>
       <use xlink:href="#me13654c066" x="49.912685" y="223.415249" style="stroke: #000000; stroke-width: 0.6"/>
      </g>
     </g>
    </g>
    <g id="ytick_7">
     <g id="line2d_20">
      <path d="M 49.912685 218.382639 
L 450 218.382639 
" clip-path="url(#p8a2a7975ef)" style="fill: none; stroke: #b0b0b0; stroke-opacity: 0.25; stroke-width: 0.6; stroke-linecap: square"/>
     </g>
     <g id="line2d_21">
      <g>
       <use xlink:href="#me13654c066" x="49.912685" y="218.382639" style="stroke: #000000; stroke-width: 0.6"/>
      </g>
     </g>
    </g>
    <g id="ytick_8">
     <g id="line2d_22">
      <path d="M 49.912685 184.264158 
L 450 184.264158 
" clip-path="url(#p8a2a7975ef)" style="fill: none; stroke: #b0b0b0; stroke-opacity: 0.25; stroke-width: 0.6; stroke-linecap: square"/>
     </g>
     <g id="line2d_23">
      <g>
       <use xlink:href="#me13654c066" x="49.912685" y="184.264158" style="stroke: #000000; stroke-width: 0.6"/>
      </g>
     </g>
    </g>
    <g id="ytick_9">
     <g id="line2d_24">
      <path d="M 49.912685 166.939524 
L 450 166.939524 
" clip-path="url(#p8a2a7975ef)" style="fill: none; stroke: #b0b0b0; stroke-opacity: 0.25; stroke-width: 0.6; stroke-linecap: square"/>
     </g>
     <g id="line2d_25">
      <g>
       <use xlink:href="#me13654c066" x="49.912685" y="166.939524" style="stroke: #000000; stroke-width: 0.6"/>
      </g>
     </g>
    </g>
    <g id="ytick_10">
     <g id="line2d_26">
      <path d="M 49.912685 154.647501 
L 450 154.647501 
" clip-path="url(#p8a2a7975ef)" style="fill: none; stroke: #b0b0b0; stroke-opacity: 0.25; stroke-width: 0.6; stroke-linecap: square"/>
     </g>
     <g id="line2d_27">
      <g>
       <use xlink:href="#me13654c066" x="49.912685" y="154.647501" style="stroke: #000000; stroke-width: 0.6"/>
      </g>
     </g>
    </g>
    <g id="ytick_11">
     <g id="line2d_28">
      <path d="M 49.912685 145.113067 
L 450 145.113067 
" clip-path="url(#p8a2a7975ef)" style="fill: none; stroke: #b0b0b0; stroke-opacity: 0.25; stroke-width: 0.6; stroke-linecap: square"/>
     </g>
     <g id="line2d_29">
      <g>
       <use xlink:href="#me13654c066" x="49.912685" y="145.113067" style="stroke: #000000; stroke-width: 0.6"/>
      </g>
     </g>
    </g>
    <g id="ytick_12">
     <g id="line2d_30">
      <path d="M 49.912685 137.322867 
L 450 137.322867 
" clip-path="url(#p8a2a7975ef)" style="fill: none; stroke: #b0b0b0; stroke-opacity: 0.25; stroke-width: 0.6; stroke-linecap: square"/>
     </g>
     <g id="line2d_31">
      <g>
       <use xlink:href="#me13654c066" x="49.912685" y="137.322867" style="stroke: #000000; stroke-width: 0.6"/>
      </g>
     </g>
    </g>
    <g id="ytick_13">
     <g id="line2d_32">
      <path d="M 49.912685 130.736347 
L 450 130.736347 
" clip-path="url(#p8a2a7975ef)" style="fill: none; stroke: #b0b0b0; stroke-opacity: 0.25; stroke-width: 0.6; stroke-linecap: square"/>
     </g>
     <g id="line2d_33">
      <g>
       <use xlink:href="#me13654c066" x="49.912685" y="130.736347" style="stroke: #000000; stroke-width: 0.6"/>
      </g>
     </g>
    </g>
    <g id="ytick_14">
     <g id="line2d_34">
      <path d="M 49.912685 125.030844 
L 450 125.030844 
" clip-path="url(#p8a2a7975ef)" style="fill: none; stroke: #b0b0b0; stroke-opacity: 0.25; stroke-width: 0.6; stroke-linecap: square"/>
     </g>
     <g id="line2d_35">
      <g>
       <use xlink:href="#me13654c066" x="49.912685" y="125.030844" style="stroke: #000000; stroke-width: 0.6"/>
      </g>
     </g>
    </g>
    <g id="ytick_15">
     <g id="line2d_36">
      <path d="M 49.912685 119.998233 
L 450 119.998233 
" clip-path="url(#p8a2a7975ef)" style="fill: none; stroke: #b0b0b0; stroke-opacity: 0.25; stroke-width: 0.6; stroke-linecap: square"/>
     </g>
     <g id="line2d_37">
      <g>
       <use xlink:href="#me13654c066" x="49.912685" y="119.998233" style="stroke: #000000; stroke-width: 0.6"/>
      </g>
     </g>
    </g>
    <g id="ytick_16">
     <g id="line2d_38">
      <path d="M 49.912685 85.879752 
L 450 85.879752 
" clip-path="url(#p8a2a7975ef)" style="fill: none; stroke: #b0b0b0; stroke-opacity: 0.25; stroke-width: 0.6; stroke-linecap: square"/>
     </g>
     <g id="line2d_39">
      <g>
       <use xlink:href="#me13654c066" x="49.912685" y="85.879752" style="stroke: #000000; stroke-width: 0.6"/>
      </g>
     </g>
    </g>
    <g id="ytick_17">
     <g id="line2d_40">
      <path d="M 49.912685 68.555118 
L 450 68.555118 
" clip-path="url(#p8a2a7975ef)" style="fill: none; stroke: #b0b0b0; stroke-opacity: 0.25; stroke-width: 0.6; stroke-linecap: square"/>
     </g>
     <g id="line2d_41">
      <g>
       <use xlink:href="#me13654c066" x="49.912685" y="68.555118" style="stroke: #000000; stroke-width: 0.6"/>
      </g>
     </g>
    </g>
    <g id="ytick_18">
     <g id="line2d_42">
      <path d="M 49.912685 56.263095 
L 450 56.263095 
" clip-path="url(#p8a2a7975ef)" style="fill: none; stroke: #b0b0b0; stroke-opacity: 0.25; stroke-width: 0.6; stroke-linecap: square"/>
     </g>
     <g id="line2d_43">
      <g>
       <use xlink:href="#me13654c066" x="49.912685" y="56.263095" style="stroke: #000000; stroke-width: 0.6"/>
      </g>
     </g>
    </g>
    <g id="ytick_19">
     <g id="line2d_44">
      <path d="M 49.912685 46.728661 
L 450 46.728661 
" clip-path="url(#p8a2a7975ef)" style="fill: none; stroke: #b0b0b0; stroke-opacity: 0.25; stroke-width: 0.6; stroke-linecap: square"/>
     </g>
     <g id="line2d_45">
      <g>
       <use xlink:href="#me13654c066" x="49.912685" y="46.728661" style="stroke: #000000; stroke-width: 0.6"/>
      </g>
     </g>
    </g>
    <g id="ytick_20">
     <g id="line2d_46">
      <path d="M 49.912685 38.938461 
L 450 38.938461 
" clip-path="url(#p8a2a7975ef)" style="fill: none; stroke: #b0b0b0; stroke-opacity: 0.25; stroke-width: 0.6; stroke-linecap: square"/>
     </g>
     <g id="line2d_47">
      <g>
       <use xlink:href="#me13654c066" x="49.912685" y="38.938461" style="stroke: #000000; stroke-width: 0.6"/>
      </g>
     </g>
    </g>
    <g id="ytick_21">
     <g id="line2d_48">
      <path d="M 49.912685 32.351941 
L 450 32.351941 
" clip-path="url(#p8a2a7975ef)" style="fill: none; stroke: #b0b0b0; stroke-opacity: 0.25; stroke-width: 0.6; stroke-linecap: square"/>
     </g>
     <g id="line2d_49">
      <g>
       <use xlink:href="#me13654c066" x="49.912685" y="32.351941" style="stroke: #000000; stroke-width: 0.6"/>
      </g>
     </g>
    </g>
    <g id="ytick_22">
     <g id="line2d_50">
      <path d="M 49.912685 26.646438 
L 450 26.646438 
" clip-path="url(#p8a2a7975ef)" style="fill: none; stroke: #b0b0b0; stroke-opacity: 0.25; stroke-width: 0.6; stroke-linecap: square"/>
     </g>
     <g id="line2d_51">
      <g>
       <use xlink:href="#me13654c066" x="49.912685" y="26.646438" style="stroke: #000000; stroke-width: 0.6"/>
      </g>
     </g>
    </g>
    <g id="text_10">
     <!-- M ops/s (log) -->
     <g transform="translate(19.232997 167.72375) rotate(-90) scale(0.1 -0.1)">
      <defs>
       <path id="DejaVuSans-6f" d="M 1959 3097 
Q 1497 3097 1228 2736 
Q 959 2375 959 1747 
Q 959 1119 1226 758 
Q 1494 397 1959 397 
Q 2419 397 2687 759 
Q 2956 1122 2956 1747 
Q 2956 2369 2687 2733 
Q 2419 3097 1959 3097 
z
M 1959 3584 
Q 2709 3584 3137 3096 
Q 3566 2609 3566 1747 
Q 3566 888 3137 398 
Q 2709 -91 1959 -91 
Q 1206 -91 779 398 
Q 353 888 353 1747 
Q 353 2609 779 3096 
Q 1206 3584 1959 3584 
z
" transform="scale(0.015625)"/>
       <path id="DejaVuSans-70" d="M 1159 525 
L 1159 -1331 
L 581 -1331 
L 581 3500 
L 1159 3500 
L 1159 2969 
Q 1341 3281 1617 3432 
Q 1894 3584 2278 3584 
Q 2916 3584 3314 3078 
Q 3713 2572 3713 1747 
Q 3713 922 3314 415 
Q 2916 -91 2278 -91 
Q 1894 -91 1617 61 
Q 1341 213 1159 525 
z
M 3116 1747 
Q 3116 2381 2855 2742 
Q 2594 3103 2138 3103 
Q 1681 3103 1420 2742 
Q 1159 2381 1159 1747 
Q 1159 1113 1420 752 
Q 1681 391 2138 391 
Q 2594 391 2855 752 
Q 3116 1113 3116 1747 
z
" transform="scale(0.015625)"/>
       <path id="DejaVuSans-73" d="M 2834 3397 
L 2834 2853 
Q 2591 2978 2328 3040 
Q 2066 3103 1784 3103 
Q 1356 3103 1142 2972 
Q 928 2841 928 2578 
Q 928 2378 1081 2264 
Q 1234 2150 1697 2047 
L 1894 2003 
Q 2506 1872 2764 1633 
Q 3022 1394 3022 966 
Q 3022 478 2636 193 
Q 2250 -91 1575 -91 
Q 1294 -91 989 -36 
Q 684 19 347 128 
L 347 722 
Q 666 556 975 473 
Q 1284 391 1588 391 
Q 1994 391 2212 530 
Q 2431 669 2431 922 
Q 2431 1156 2273 1281 
Q 2116 1406 1581 1522 
L 1381 1569 
Q 847 1681 609 1914 
Q 372 2147 372 2553 
Q 372 3047 722 3315 
Q 1072 3584 1716 3584 
Q 2034 3584 2315 3537 
Q 2597 3491 2834 3397 
z
" transform="scale(0.015625)"/>
       <path id="DejaVuSans-2f" d="M 1625 4666 
L 2156 4666 
L 531 -594 
L 0 -594 
L 1625 4666 
z
" transform="scale(0.015625)"/>
       <path id="DejaVuSans-28" d="M 1984 4856 
Q 1566 4138 1362 3434 
Q 1159 2731 1159 2009 
Q 1159 1288 1364 580 
Q 1569 -128 1984 -844 
L 1484 -844 
Q 1016 -109 783 600 
Q 550 1309 550 2009 
Q 550 2706 781 3412 
Q 1013 4119 1484 4856 
L 1984 4856 
z
" transform="scale(0.015625)"/>
       <path id="DejaVuSans-6c" d="M 603 4863 
L 1178 4863 
L 1178 0 
L 603 0 
L 603 4863 
z
" transform="scale(0.015625)"/>
       <path id="DejaVuSans-67" d="M 2906 1791 
Q 2906 2416 2648 2759 
Q 2391 3103 1925 3103 
Q 1463 3103 1205 2759 
Q 947 2416 947 1791 
Q 947 1169 1205 825 
Q 1463 481 1925 481 
Q 2391 481 2648 825 
Q 2906 1169 2906 1791 
z
M 3481 434 
Q 3481 -459 3084 -895 
Q 2688 -1331 1869 -1331 
Q 1566 -1331 1297 -1286 
Q 1028 -1241 775 -1147 
L 775 -588 
Q 1028 -725 1275 -790 
Q 1522 -856 1778 -856 
Q 2344 -856 2625 -561 
Q 2906 -266 2906 331 
L 2906 616 
Q 2728 306 2450 153 
Q 2172 0 1784 0 
Q 1141 0 747 490 
Q 353 981 353 1791 
Q 353 2603 747 3093 
Q 1141 3584 1784 3584 
Q 2172 3584 2450 3431 
Q 2728 3278 2906 2969 
L 2906 3500 
L 3481 3500 
L 3481 434 
z
" transform="scale(0.015625)"/>
       <path id="DejaVuSans-29" d="M 513 4856 
L 1013 4856 
Q 1481 4119 1714 3412 
Q 1947 2706 1947 2009 
Q 1947 1309 1714 600 
Q 1481 -109 1013 -844 
L 513 -844 
Q 928 -128 1133 580 
Q 1338 1288 1338 2009 
Q 1338 2731 1133 3434 
Q 928 4138 513 4856 
z
" transform="scale(0.015625)"/>
      </defs>
      <use xlink:href="#DejaVuSans-4d"/>
      <use xlink:href="#DejaVuSans-20" transform="translate(86.279297 0)"/>
      <use xlink:href="#DejaVuSans-6f" transform="translate(118.066406 0)"/>
      <use xlink:href="#DejaVuSans-70" transform="translate(179.248047 0)"/>
      <use xlink:href="#DejaVuSans-73" transform="translate(242.724609 0)"/>
      <use xlink:href="#DejaVuSans-2f" transform="translate(294.824219 0)"/>
      <use xlink:href="#DejaVuSans-73" transform="translate(328.515625 0)"/>
      <use xlink:href="#DejaVuSans-20" transform="translate(380.615234 0)"/>
      <use xlink:href="#DejaVuSans-28" transform="translate(412.402344 0)"/>
      <use xlink:href="#DejaVuSans-6c" transform="translate(451.416016 0)"/>
      <use xlink:href="#DejaVuSans-6f" transform="translate(479.199219 0)"/>
      <use xlink:href="#DejaVuSans-67" transform="translate(540.380859 0)"/>
      <use xlink:href="#DejaVuSans-29" transform="translate(603.857422 0)"/>
     </g>
    </g>
   </g>
   <g id="line2d_52">
    <path d="M 68.098472 113.006707 
L 128.717762 121.94074 
L 189.337052 119.526098 
L 249.956342 174.729724 
L 310.575633 174.729724 
L 371.194923 174.729724 
L 431.814213 149.61489 
" clip-path="url(#p8a2a7975ef)" style="fill: none; stroke: #7f7f7f; stroke-width: 1.8; stroke-linecap: square"/>
    <defs>
     <path id="m1298be55ef" d="M 0 2 
C 0.530406 2 1.03916 1.789267 1.414214 1.414214 
C 1.789267 1.03916 2 0.530406 2 0 
C 2 -0.530406 1.789267 -1.03916 1.414214 -1.414214 
C 1.03916 -1.789267 0.530406 -2 0 -2 
C -0.530406 -2 -1.03916 -1.789267 -1.414214 -1.414214 
C -1.789267 -1.03916 -2 -0.530406 -2 0 
C -2 0.530406 -1.789267 1.03916 -1.414214 1.414214 
C -1.03916 1.789267 -0.530406 2 0 2 
z
" style="stroke: #7f7f7f"/>
    </defs>
    <g clip-path="url(#p8a2a7975ef)">
     <use xlink:href="#m1298be55ef" x="68.098472" y="113.006707" style="fill: #7f7f7f; stroke: #7f7f7f"/>
     <use xlink:href="#m1298be55ef" x="128.717762" y="121.94074" style="fill: #7f7f7f; stroke: #7f7f7f"/>
     <use xlink:href="#m1298be55ef" x="189.337052" y="119.526098" style="fill: #7f7f7f; stroke: #7f7f7f"/>
     <use xlink:href="#m1298be55ef" x="249.956342" y="174.729724" style="fill: #7f7f7f; stroke: #7f7f7f"/>
     <use xlink:href="#m1298be55ef" x="310.575633" y="174.729724" style="fill: #7f7f7f; stroke: #7f7f7f"/>
     <use xlink:href="#m1298be55ef" x="371.194923" y="174.729724" style="fill: #7f7f7f; stroke: #7f7f7f"/>
     <use xlink:href="#m1298be55ef" x="431.814213" y="149.61489" style="fill: #7f7f7f; stroke: #7f7f7f"/>
    </g>
   </g>
   <g id="line2d_53">
    <path d="M 68.098472 46.47306 
L 128.717762 51.51629 
L 189.337052 86.309181 
L 249.956342 86.093927 
L 310.575633 85.454596 
L 371.194923 229.120753 
L 431.814213 235.707273 
" clip-path="url(#p8a2a7975ef)" style="fill: none; stroke: #1f77b4; stroke-width: 1.8; stroke-linecap: square"/>
    <defs>
     <path id="m22122656dd" d="M -2 2 
L 2 2 
L 2 -2 
L -2 -2 
z
" style="stroke: #1f77b4; stroke-linejoin: miter"/>
    </defs>
    <g clip-path="url(#p8a2a7975ef)">
     <use xlink:href="#m22122656dd" x="68.098472" y="46.47306" style="fill: #1f77b4; stroke: #1f77b4; stroke-linejoin: miter"/>
     <use xlink:href="#m22122656dd" x="128.717762" y="51.51629" style="fill: #1f77b4; stroke: #1f77b4; stroke-linejoin: miter"/>
     <use xlink:href="#m22122656dd" x="189.337052" y="86.309181" style="fill: #1f77b4; stroke: #1f77b4; stroke-linejoin: miter"/>
     <use xlink:href="#m22122656dd" x="249.956342" y="86.093927" style="fill: #1f77b4; stroke: #1f77b4; stroke-linejoin: miter"/>
     <use xlink:href="#m22122656dd" x="310.575633" y="85.454596" style="fill: #1f77b4; stroke: #1f77b4; stroke-linejoin: miter"/>
     <use xlink:href="#m22122656dd" x="371.194923" y="229.120753" style="fill: #1f77b4; stroke: #1f77b4; stroke-linejoin: miter"/>
     <use xlink:href="#m22122656dd" x="431.814213" y="235.707273" style="fill: #1f77b4; stroke: #1f77b4; stroke-linejoin: miter"/>
    </g>
   </g>
   <g id="line2d_54">
    <path d="M 68.098472 104.94862 
L 128.717762 106.305172 
L 189.337052 129.532667 
L 249.956342 188.765982 
L 310.575633 188.765982 
L 371.194923 188.765982 
L 431.814213 188.765982 
" clip-path="url(#p8a2a7975ef)" style="fill: none; stroke: #2ca02c; stroke-width: 1.8; stroke-linecap: square"/>
    <defs>
     <path id="ma6bcf16109" d="M 0 -2 
L -2 2 
L 2 2 
z
" style="stroke: #2ca02c; stroke-linejoin: miter"/>
    </defs>
    <g clip-path="url(#p8a2a7975ef)">
     <use xlink:href="#ma6bcf16109" x="68.098472" y="104.94862" style="fill: #2ca02c; stroke: #2ca02c; stroke-linejoin: miter"/>
     <use xlink:href="#ma6bcf16109" x="128.717762" y="106.305172" style="fill: #2ca02c; stroke: #2ca02c; stroke-linejoin: miter"/>
     <use xlink:href="#ma6bcf16109" x="189.337052" y="129.532667" style="fill: #2ca02c; stroke: #2ca02c; stroke-linejoin: miter"/>
     <use xlink:href="#ma6bcf16109" x="249.956342" y="188.765982" style="fill: #2ca02c; stroke: #2ca02c; stroke-linejoin: miter"/>
     <use xlink:href="#ma6bcf16109" x="310.575633" y="188.765982" style="fill: #2ca02c; stroke: #2ca02c; stroke-linejoin: miter"/>
     <use xlink:href="#ma6bcf16109" x="371.194923" y="188.765982" style="fill: #2ca02c; stroke: #2ca02c; stroke-linejoin: miter"/>
     <use xlink:href="#ma6bcf16109" x="431.814213" y="188.765982" style="fill: #2ca02c; stroke: #2ca02c; stroke-linejoin: miter"/>
    </g>
   </g>
   <g id="patch_3">
    <path d="M 49.912685 245.72 
L 49.912685 25.44 
" style="fill: none; stroke: #000000; stroke-width: 0.8; stroke-linejoin: miter; stroke-linecap: square"/>
   </g>
   <g id="patch_4">
    <path d="M 49.912685 245.72 
L 450 245.72 
" style="fill: none; stroke: #000000; stroke-width: 0.8; stroke-linejoin: miter; stroke-linecap: square"/>
   </g>
   <g id="text_11">
    <!-- mmap-per-call cliff -->
    <g style="fill: #1f77b4" transform="translate(331.412931 218.254791) scale(0.085 -0.085)">
     <defs>
      <path id="DejaVuSans-6d" d="M 3328 2828 
Q 3544 3216 3844 3400 
Q 4144 3584 4550 3584 
Q 5097 3584 5394 3201 
Q 5691 2819 5691 2113 
L 5691 0 
L 5113 0 
L 5113 2094 
Q 5113 2597 4934 2840 
Q 4756 3084 4391 3084 
Q 3944 3084 3684 2787 
Q 3425 2491 3425 1978 
L 3425 0 
L 2847 0 
L 2847 2094 
Q 2847 2600 2669 2842 
Q 2491 3084 2119 3084 
Q 1678 3084 1418 2786 
Q 1159 2488 1159 1978 
L 1159 0 
L 581 0 
L 581 3500 
L 1159 3500 
L 1159 2956 
Q 1356 3278 1631 3431 
Q 1906 3584 2284 3584 
Q 2666 3584 2933 3390 
Q 3200 3197 3328 2828 
z
" transform="scale(0.015625)"/>
      <path id="DejaVuSans-61" d="M 2194 1759 
Q 1497 1759 1228 1600 
Q 959 1441 959 1056 
Q 959 750 1161 570 
Q 1363 391 1709 391 
Q 2188 391 2477 730 
Q 2766 1069 2766 1631 
L 2766 1759 
L 2194 1759 
z
M 3341 1997 
L 3341 0 
L 2766 0 
L 2766 531 
Q 2569 213 2275 61 
Q 1981 -91 1556 -91 
Q 1019 -91 701 211 
Q 384 513 384 1019 
Q 384 1609 779 1909 
Q 1175 2209 1959 2209 
L 2766 2209 
L 2766 2266 
Q 2766 2663 2505 2880 
Q 2244 3097 1772 3097 
Q 1472 3097 1187 3025 
Q 903 2953 641 2809 
L 641 3341 
Q 956 3463 1253 3523 
Q 1550 3584 1831 3584 
Q 2591 3584 2966 3190 
Q 3341 2797 3341 1997 
z
" transform="scale(0.015625)"/>
      <path id="DejaVuSans-2d" d="M 313 2009 
L 1997 2009 
L 1997 1497 
L 313 1497 
L 313 2009 
z
" transform="scale(0.015625)"/>
      <path id="DejaVuSans-65" d="M 3597 1894 
L 3597 1613 
L 953 1613 
Q 991 1019 1311 708 
Q 1631 397 2203 397 
Q 2534 397 2845 478 
Q 3156 559 3463 722 
L 3463 178 
Q 3153 47 2828 -22 
Q 2503 -91 2169 -91 
Q 1331 -91 842 396 
Q 353 884 353 1716 
Q 353 2575 817 3079 
Q 1281 3584 2069 3584 
Q 2775 3584 3186 3129 
Q 3597 2675 3597 1894 
z
M 3022 2063 
Q 3016 2534 2758 2815 
Q 2500 3097 2075 3097 
Q 1594 3097 1305 2825 
Q 1016 2553 972 2059 
L 3022 2063 
z
" transform="scale(0.015625)"/>
      <path id="DejaVuSans-72" d="M 2631 2963 
Q 2534 3019 2420 3045 
Q 2306 3072 2169 3072 
Q 1681 3072 1420 2755 
Q 1159 2438 1159 1844 
L 1159 0 
L 581 0 
L 581 3500 
L 1159 3500 
L 1159 2956 
Q 1341 3275 1631 3429 
Q 1922 3584 2338 3584 
Q 2397 3584 2469 3576 
Q 2541 3569 2628 3553 
L 2631 2963 
z
" transform="scale(0.015625)"/>
      <path id="DejaVuSans-63" d="M 3122 3366 
L 3122 2828 
Q 2878 2963 2633 3030 
Q 2388 3097 2138 3097 
Q 1578 3097 1268 2742 
Q 959 2388 959 1747 
Q 959 1106 1268 751 
Q 1578 397 2138 397 
Q 2388 397 2633 464 
Q 2878 531 3122 666 
L 3122 134 
Q 2881 22 2623 -34 
Q 2366 -91 2075 -91 
Q 1284 -91 818 406 
Q 353 903 353 1747 
Q 353 2603 823 3093 
Q 1294 3584 2113 3584 
Q 2378 3584 2631 3529 
Q 2884 3475 3122 3366 
z
" transform="scale(0.015625)"/>
      <path id="DejaVuSans-66" d="M 2375 4863 
L 2375 4384 
L 1825 4384 
Q 1516 4384 1395 4259 
Q 1275 4134 1275 3809 
L 1275 3500 
L 2222 3500 
L 2222 3053 
L 1275 3053 
L 1275 0 
L 697 0 
L 697 3053 
L 147 3053 
L 147 3500 
L 697 3500 
L 697 3744 
Q 697 4328 969 4595 
Q 1241 4863 1831 4863 
L 2375 4863 
z
" transform="scale(0.015625)"/>
     </defs>
     <use xlink:href="#DejaVuSans-6d"/>
     <use xlink:href="#DejaVuSans-6d" transform="translate(97.412109 0)"/>
     <use xlink:href="#DejaVuSans-61" transform="translate(194.824219 0)"/>
     <use xlink:href="#DejaVuSans-70" transform="translate(256.103516 0)"/>
     <use xlink:href="#DejaVuSans-2d" transform="translate(319.580078 0)"/>
     <use xlink:href="#DejaVuSans-70" transform="translate(355.664062 0)"/>
     <use xlink:href="#DejaVuSans-65" transform="translate(419.140625 0)"/>
     <use xlink:href="#DejaVuSans-72" transform="translate(480.664062 0)"/>
     <use xlink:href="#DejaVuSans-2d" transform="translate(515.402344 0)"/>
     <use xlink:href="#DejaVuSans-63" transform="translate(551.486328 0)"/>
     <use xlink:href="#DejaVuSans-61" transform="translate(606.466797 0)"/>
     <use xlink:href="#DejaVuSans-6c" transform="translate(667.746094 0)"/>
     <use xlink:href="#DejaVuSans-6c" transform="translate(695.529297 0)"/>
     <use xlink:href="#DejaVuSans-20" transform="translate(723.3125 0)"/>
     <use xlink:href="#DejaVuSans-63" transform="translate(755.099609 0)"/>
     <use xlink:href="#DejaVuSans-6c" transform="translate(810.080078 0)"/>
     <use xlink:href="#DejaVuSans-69" transform="translate(837.863281 0)"/>
     <use xlink:href="#DejaVuSans-66" transform="translate(865.646484 0)"/>
     <use xlink:href="#DejaVuSans-66" transform="translate(900.851562 0)"/>
    </g>
   </g>
   <g id="text_12">
    <!-- bench_loop, 1 thread — Apple M3 (macOS arm64) -->
    <g transform="translate(111.917514 19.44) scale(0.11 -0.11)">
     <defs>
      <path id="DejaVuSans-62" d="M 3116 1747 
Q 3116 2381 2855 2742 
Q 2594 3103 2138 3103 
Q 1681 3103 1420 2742 
Q 1159 2381 1159 1747 
Q 1159 1113 1420 752 
Q 1681 391 2138 391 
Q 2594 391 2855 752 
Q 3116 1113 3116 1747 
z
M 1159 2969 
Q 1341 3281 1617 3432 
Q 1894 3584 2278 3584 
Q 2916 3584 3314 3078 
Q 3713 2572 3713 1747 
Q 3713 922 3314 415 
Q 2916 -91 2278 -91 
Q 1894 -91 1617 61 
Q 1341 213 1159 525 
L 1159 0 
L 581 0 
L 581 4863 
L 1159 4863 
L 1159 2969 
z
" transform="scale(0.015625)"/>
      <path id="DejaVuSans-6e" d="M 3513 2113 
L 3513 0 
L 2938 0 
L 2938 2094 
Q 2938 2591 2744 2837 
Q 2550 3084 2163 3084 
Q 1697 3084 1428 2787 
Q 1159 2491 1159 1978 
L 1159 0 
L 581 0 
L 581 3500 
L 1159 3500 
L 1159 2956 
Q 1366 3272 1645 3428 
Q 1925 3584 2291 3584 
Q 2894 3584 3203 3211 
Q 3513 2838 3513 2113 
z
" transform="scale(0.015625)"/>
      <path id="DejaVuSans-68" d="M 3513 2113 
L 3513 0 
L 2938 0 
L 2938 2094 
Q 2938 2591 2744 2837 
Q 2550 3084 2163 3084 
Q 1697 3084 1428 2787 
Q 1159 2491 1159 1978 
L 1159 0 
L 581 0 
L 581 4863 
L 1159 4863 
L 1159 2956 
Q 1366 3272 1645 3428 
Q 1925 3584 2291 3584 
Q 2894 3584 3203 3211 
Q 3513 2838 3513 2113 
z
" transform="scale(0.015625)"/>
      <path id="DejaVuSans-5f" d="M 3263 -1063 
L 3263 -1509 
L -63 -1509 
L -63 -1063 
L 3263 -1063 
z
" transform="scale(0.015625)"/>
      <path id="DejaVuSans-2c" d="M 750 794 
L 1409 794 
L 1409 256 
L 897 -744 
L 494 -744 
L 750 256 
L 750 794 
z
" transform="scale(0.015625)"/>
      <path id="DejaVuSans-74" d="M 1172 4494 
L 1172 3500 
L 2356 3500 
L 2356 3053 
L 1172 3053 
L 1172 1153 
Q 1172 725 1289 603 
Q 1406 481 1766 481 
L 2356 481 
L 2356 0 
L 1766 0 
Q 1100 0 847 248 
Q 594 497 594 1153 
L 594 3053 
L 172 3053 
L 172 3500 
L 594 3500 
L 594 4494 
L 1172 4494 
z
" transform="scale(0.015625)"/>
      <path id="DejaVuSans-64" d="M 2906 2969 
L 2906 4863 
L 3481 4863 
L 3481 0 
L 2906 0 
L 2906 525 
Q 2725 213 2448 61 
Q 2172 -91 1784 -91 
Q 1150 -91 751 415 
Q 353 922 353 1747 
Q 353 2572 751 3078 
Q 1150 3584 1784 3584 
Q 2172 3584 2448 3432 
Q 2725 3281 2906 2969 
z
M 947 1747 
Q 947 1113 1208 752 
Q 1469 391 1925 391 
Q 2381 391 2643 752 
Q 2906 1113 2906 1747 
Q 2906 2381 2643 2742 
Q 2381 3103 1925 3103 
Q 1469 3103 1208 2742 
Q 947 2381 947 1747 
z
" transform="scale(0.015625)"/>
      <path id="DejaVuSans-2014" d="M 313 1978 
L 6088 1978 
L 6088 1528 
L 313 1528 
L 313 1978 
z
" transform="scale(0.015625)"/>
      <path id="DejaVuSans-41" d="M 2188 4044 
L 1331 1722 
L 3047 1722 
L 2188 4044 
z
M 1831 4666 
L 2547 4666 
L 4325 0 
L 3669 0 
L 3244 1197 
L 1141 1197 
L 716 0 
L 50 0 
L 1831 4666 
z
" transform="scale(0.015625)"/>
      <path id="DejaVuSans-33" d="M 2597 2516 
Q 3050 2419 3304 2112 
Q 3559 1806 3559 1356 
Q 3559 666 3084 287 
Q 2609 -91 1734 -91 
Q 1441 -91 1130 -33 
Q 819 25 488 141 
L 488 750 
Q 750 597 1062 519 
Q 1375 441 1716 441 
Q 2309 441 2620 675 
Q 2931 909 2931 1356 
Q 2931 1769 2642 2001 
Q 2353 2234 1838 2234 
L 1294 2234 
L 1294 2753 
L 1863 2753 
Q 2328 2753 2575 2939 
Q 2822 3125 2822 3475 
Q 2822 3834 2567 4026 
Q 2313 4219 1838 4219 
Q 1578 4219 1281 4162 
Q 984 4106 628 3988 
L 628 4550 
Q 988 4650 1302 4700 
Q 1616 4750 1894 4750 
Q 2613 4750 3031 4423 
Q 3450 4097 3450 3541 
Q 3450 3153 3228 2886 
Q 3006 2619 2597 2516 
z
" transform="scale(0.015625)"/>
      <path id="DejaVuSans-4f" d="M 2522 4238 
Q 1834 4238 1429 3725 
Q 1025 3213 1025 2328 
Q 1025 1447 1429 934 
Q 1834 422 2522 422 
Q 3209 422 3611 934 
Q 4013 1447 4013 2328 
Q 4013 3213 3611 3725 
Q 3209 4238 2522 4238 
z
M 2522 4750 
Q 3503 4750 4090 4092 
Q 4678 3434 4678 2328 
Q 4678 1225 4090 567 
Q 3503 -91 2522 -91 
Q 1538 -91 948 565 
Q 359 1222 359 2328 
Q 359 3434 948 4092 
Q 1538 4750 2522 4750 
z
" transform="scale(0.015625)"/>
      <path id="DejaVuSans-53" d="M 3425 4513 
L 3425 3897 
Q 3066 4069 2747 4153 
Q 2428 4238 2131 4238 
Q 1616 4238 1336 4038 
Q 1056 3838 1056 3469 
Q 1056 3159 1242 3001 
Q 1428 2844 1947 2747 
L 2328 2669 
Q 3034 2534 3370 2195 
Q 3706 1856 3706 1288 
Q 3706 609 3251 259 
Q 2797 -91 1919 -91 
Q 1588 -91 1214 -16 
Q 841 59 441 206 
L 441 856 
Q 825 641 1194 531 
Q 1563 422 1919 422 
Q 2459 422 2753 634 
Q 3047 847 3047 1241 
Q 3047 1584 2836 1778 
Q 2625 1972 2144 2069 
L 1759 2144 
Q 1053 2284 737 2584 
Q 422 2884 422 3419 
Q 422 4038 858 4394 
Q 1294 4750 2059 4750 
Q 2388 4750 2728 4690 
Q 3069 4631 3425 4513 
z
" transform="scale(0.015625)"/>
     </defs>
     <use xlink:href="#DejaVuSans-62"/>
     <use xlink:href="#DejaVuSans-65" transform="translate(63.476562 0)"/>
     <use xlink:href="#DejaVuSans-6e" transform="translate(125 0)"/>
     <use xlink:href="#DejaVuSans-63" transform="translate(188.378906 0)"/>
     <use xlink:href="#DejaVuSans-68" transform="translate(243.359375 0)"/>
     <use xlink:href="#DejaVuSans-5f" transform="translate(306.738281 0)"/>
     <use xlink:href="#DejaVuSans-6c" transform="translate(356.738281 0)"/>
     <use xlink:href="#DejaVuSans-6f" transform="translate(384.521484 0)"/>
     <use xlink:href="#DejaVuSans-6f" transform="translate(445.703125 0)"/>
     <use xlink:href="#DejaVuSans-70" transform="translate(506.884766 0)"/>
     <use xlink:href="#DejaVuSans-2c" transform="translate(570.361328 0)"/>
     <use xlink:href="#DejaVuSans-20" transform="translate(602.148438 0)"/>
     <use xlink:href="#DejaVuSans-31" transform="translate(633.935547 0)"/>
     <use xlink:href="#DejaVuSans-20" transform="translate(697.558594 0)"/>
     <use xlink:href="#DejaVuSans-74" transform="translate(729.345703 0)"/>
     <use xlink:href="#DejaVuSans-68" transform="translate(768.554688 0)"/>
     <use xlink:href="#DejaVuSans-72" transform="translate(831.933594 0)"/>
     <use xlink:href="#DejaVuSans-65" transform="translate(870.796875 0)"/>
     <use xlink:href="#DejaVuSans-61" transform="translate(932.320312 0)"/>
     <use xlink:href="#DejaVuSans-64" transform="translate(993.599609 0)"/>
     <use xlink:href="#DejaVuSans-20" transform="translate(1057.076172 0)"/>
     <use xlink:href="#DejaVuSans-2014" transform="translate(1088.863281 0)"/>
     <use xlink:href="#DejaVuSans-20" transform="translate(1188.863281 0)"/>
     <use xlink:href="#DejaVuSans-41" transform="translate(1220.650391 0)"/>
     <use xlink:href="#DejaVuSans-70" transform="translate(1289.058594 0)"/>
     <use xlink:href="#DejaVuSans-70" transform="translate(1352.535156 0)"/>
     <use xlink:href="#DejaVuSans-6c" transform="translate(1416.011719 0)"/>
     <use xlink:href="#DejaVuSans-65" transform="translate(1443.794922 0)"/>
     <use xlink:href="#DejaVuSans-20" transform="translate(1505.318359 0)"/>
     <use xlink:href="#DejaVuSans-4d" transform="translate(1537.105469 0)"/>
     <use xlink:href="#DejaVuSans-33" transform="translate(1623.384766 0)"/>
     <use xlink:href="#DejaVuSans-20" transform="translate(1687.007812 0)"/>
     <use xlink:href="#DejaVuSans-28" transform="translate(1718.794922 0)"/>
     <use xlink:href="#DejaVuSans-6d" transform="translate(1757.808594 0)"/>
     <use xlink:href="#DejaVuSans-61" transform="translate(1855.220703 0)"/>
     <use xlink:href="#DejaVuSans-63" transform="translate(1916.5 0)"/>
     <use xlink:href="#DejaVuSans-4f" transform="translate(1971.480469 0)"/>
     <use xlink:href="#DejaVuSans-53" transform="translate(2050.191406 0)"/>
     <use xlink:href="#DejaVuSans-20" transform="translate(2113.667969 0)"/>
     <use xlink:href="#DejaVuSans-61" transform="translate(2145.455078 0)"/>
     <use xlink:href="#DejaVuSans-72" transform="translate(2206.734375 0)"/>
     <use xlink:href="#DejaVuSans-6d" transform="translate(2246.097656 0)"/>
     <use xlink:href="#DejaVuSans-36" transform="translate(2343.509766 0)"/>
     <use xlink:href="#DejaVuSans-34" transform="translate(2407.132812 0)"/>
     <use xlink:href="#DejaVuSans-29" transform="translate(2470.755859 0)"/>
    </g>
   </g>
   <g id="line2d_55">
    <path d="M 68.098472 35.452727 
L 128.717762 53.372189 
L 189.337052 62.459728 
L 249.956342 100.513611 
L 310.575633 103.958743 
L 371.194923 107.35162 
L 431.814213 110.654124 
" clip-path="url(#p8a2a7975ef)" style="fill: none; stroke: #d62728; stroke-width: 3; stroke-linecap: square"/>
    <defs>
     <path id="me06e34f115" d="M 0 3 
C 0.795609 3 1.55874 2.683901 2.12132 2.12132 
C 2.683901 1.55874 3 0.795609 3 0 
C 3 -0.795609 2.683901 -1.55874 2.12132 -2.12132 
C 1.55874 -2.683901 0.795609 -3 0 -3 
C -0.795609 -3 -1.55874 -2.683901 -2.12132 -2.12132 
C -2.683901 -1.55874 -3 -0.795609 -3 0 
C -3 0.795609 -2.683901 1.55874 -2.12132 2.12132 
C -1.55874 2.683901 -0.795609 3 0 3 
z
" style="stroke: #d62728"/>
    </defs>
    <g clip-path="url(#p8a2a7975ef)">
     <use xlink:href="#me06e34f115" x="68.098472" y="35.452727" style="fill: #d62728; stroke: #d62728"/>
     <use xlink:href="#me06e34f115" x="128.717762" y="53.372189" style="fill: #d62728; stroke: #d62728"/>
     <use xlink:href="#me06e34f115" x="189.337052" y="62.459728" style="fill: #d62728; stroke: #d62728"/>
     <use xlink:href="#me06e34f115" x="249.956342" y="100.513611" style="fill: #d62728; stroke: #d62728"/>
     <use xlink:href="#me06e34f115" x="310.575633" y="103.958743" style="fill: #d62728; stroke: #d62728"/>
     <use xlink:href="#me06e34f115" x="371.194923" y="107.35162" style="fill: #d62728; stroke: #d62728"/>
     <use xlink:href="#me06e34f115" x="431.814213" y="110.654124" style="fill: #d62728; stroke: #d62728"/>
    </g>
   </g>
   <g id="legend_1">
    <g id="line2d_56">
     <path d="M 58.012685 192.967344 
L 67.012685 192.967344 
L 76.012685 192.967344 
" style="fill: none; stroke: #7f7f7f; stroke-width: 1.8; stroke-linecap: square"/>
     <g>
      <use xlink:href="#m1298be55ef" x="67.012685" y="192.967344" style="fill: #7f7f7f; stroke: #7f7f7f"/>
     </g>
    </g>
    <g id="text_13">
     <!-- system -->
     <g transform="translate(83.212685 196.117344) scale(0.09 -0.09)">
      <defs>
       <path id="DejaVuSans-79" d="M 2059 -325 
Q 1816 -950 1584 -1140 
Q 1353 -1331 966 -1331 
L 506 -1331 
L 506 -850 
L 844 -850 
Q 1081 -850 1212 -737 
Q 1344 -625 1503 -206 
L 1606 56 
L 191 3500 
L 800 3500 
L 1894 763 
L 2988 3500 
L 3597 3500 
L 2059 -325 
z
" transform="scale(0.015625)"/>
      </defs>
      <use xlink:href="#DejaVuSans-73"/>
      <use xlink:href="#DejaVuSans-79" transform="translate(52.099609 0)"/>
      <use xlink:href="#DejaVuSans-73" transform="translate(111.279297 0)"/>
      <use xlink:href="#DejaVuSans-74" transform="translate(163.378906 0)"/>
      <use xlink:href="#DejaVuSans-65" transform="translate(202.587891 0)"/>
      <use xlink:href="#DejaVuSans-6d" transform="translate(264.111328 0)"/>
     </g>
    </g>
    <g id="line2d_57">
     <path d="M 58.012685 206.177656 
L 67.012685 206.177656 
L 76.012685 206.177656 
" style="fill: none; stroke: #1f77b4; stroke-width: 1.8; stroke-linecap: square"/>
     <g>
      <use xlink:href="#m22122656dd" x="67.012685" y="206.177656" style="fill: #1f77b4; stroke: #1f77b4; stroke-linejoin: miter"/>
     </g>
    </g>
    <g id="text_14">
     <!-- mimalloc -->
     <g transform="translate(83.212685 209.327656) scale(0.09 -0.09)">
      <use xlink:href="#DejaVuSans-6d"/>
      <use xlink:href="#DejaVuSans-69" transform="translate(97.412109 0)"/>
      <use xlink:href="#DejaVuSans-6d" transform="translate(125.195312 0)"/>
      <use xlink:href="#DejaVuSans-61" transform="translate(222.607422 0)"/>
      <use xlink:href="#DejaVuSans-6c" transform="translate(283.886719 0)"/>
      <use xlink:href="#DejaVuSans-6c" transform="translate(311.669922 0)"/>
      <use xlink:href="#DejaVuSans-6f" transform="translate(339.453125 0)"/>
      <use xlink:href="#DejaVuSans-63" transform="translate(400.634766 0)"/>
     </g>
    </g>
    <g id="line2d_58">
     <path d="M 58.012685 219.387969 
L 67.012685 219.387969 
L 76.012685 219.387969 
" style="fill: none; stroke: #2ca02c; stroke-width: 1.8; stroke-linecap: square"/>
     <g>
      <use xlink:href="#ma6bcf16109" x="67.012685" y="219.387969" style="fill: #2ca02c; stroke: #2ca02c; stroke-linejoin: miter"/>
     </g>
    </g>
    <g id="text_15">
     <!-- jemalloc -->
     <g transform="translate(83.212685 222.537969) scale(0.09 -0.09)">
      <defs>
       <path id="DejaVuSans-6a" d="M 603 3500 
L 1178 3500 
L 1178 -63 
Q 1178 -731 923 -1031 
Q 669 -1331 103 -1331 
L -116 -1331 
L -116 -844 
L 38 -844 
Q 366 -844 484 -692 
Q 603 -541 603 -63 
L 603 3500 
z
M 603 4863 
L 1178 4863 
L 1178 4134 
L 603 4134 
L 603 4863 
z
" transform="scale(0.015625)"/>
      </defs>
      <use xlink:href="#DejaVuSans-6a"/>
      <use xlink:href="#DejaVuSans-65" transform="translate(27.783203 0)"/>
      <use xlink:href="#DejaVuSans-6d" transform="translate(89.306641 0)"/>
      <use xlink:href="#DejaVuSans-61" transform="translate(186.71875 0)"/>
      <use xlink:href="#DejaVuSans-6c" transform="translate(247.998047 0)"/>
      <use xlink:href="#DejaVuSans-6c" transform="translate(275.78125 0)"/>
      <use xlink:href="#DejaVuSans-6f" transform="translate(303.564453 0)"/>
      <use xlink:href="#DejaVuSans-63" transform="translate(364.746094 0)"/>
     </g>
    </g>
    <g id="line2d_59">
     <path d="M 58.012685 232.598281 
L 67.012685 232.598281 
L 76.012685 232.598281 
" style="fill: none; stroke: #d62728; stroke-width: 3; stroke-linecap: square"/>
     <g>
      <use xlink:href="#me06e34f115" x="67.012685" y="232.598281" style="fill: #d62728; stroke: #d62728"/>
     </g>
    </g>
    <g id="text_16">
     <!-- kame -->
     <g transform="translate(83.212685 235.748281) scale(0.09 -0.09)">
      <defs>
       <path id="DejaVuSans-6b" d="M 581 4863 
L 1159 4863 
L 1159 1991 
L 2875 3500 
L 3609 3500 
L 1753 1863 
L 3688 0 
L 2938 0 
L 1159 1709 
L 1159 0 
L 581 0 
L 581 4863 
z
" transform="scale(0.015625)"/>
      </defs>
      <use xlink:href="#DejaVuSans-6b"/>
      <use xlink:href="#DejaVuSans-61" transform="translate(56.160156 0)"/>
      <use xlink:href="#DejaVuSans-6d" transform="translate(117.439453 0)"/>
      <use xlink:href="#DejaVuSans-65" transform="translate(214.851562 0)"/>
     </g>
    </g>
   </g>
  </g>
 </g>
 <defs>
  <clipPath id="p8a2a7975ef">
   <rect x="49.912685" y="25.44" width="400.087315" height="220.28"/>
  </clipPath>
 </defs>
</svg>
